<?xml version="1.0" encoding="UTF-8"?>
<svg xmlns="http://www.w3.org/2000/svg" xmlns:xlink="http://www.w3.org/1999/xlink" version="1.1" id="Layer_1" x="0px" y="0px" viewBox="0 0 24 24" style="enable-background:new 0 0 24 24;" xml:space="preserve">
<g>
	<path style="fill:#303C42;" d="M19,0h-5c-0.031,0-0.059,0.008-0.09,0.009l0-0.001l-0.01,0.002   c-0.173,0.009-0.339,0.041-0.497,0.091L8.86,0.933C8.435,0.966,8.046,1.137,7.73,1.404L7.728,1.401l-3.67,2.386   C3.396,4.201,3,4.915,3,5.696c0,0.446,0.131,0.877,0.359,1.218l8.657,15.247C12.099,23.187,12.952,24,14,24h5c1.103,0,2-0.897,2-2   V2C21,0.897,20.103,0,19,0z M16.5,20c-0.275,0-0.5-0.224-0.5-0.5s0.225-0.5,0.5-0.5s0.5,0.224,0.5,0.5S16.775,20,16.5,20z"/>
	<path style="fill:#0091EA;" d="M8.988,1.923l3.129-0.571C12.046,1.556,12,1.772,12,2v15.349L8.062,3.235   C7.967,2.942,8.011,2.627,8.183,2.371C8.354,2.115,8.629,1.954,8.988,1.923z"/>
	<path style="fill:#76FF03;" d="M4,5.696c0-0.434,0.22-0.831,0.595-1.065l2.423-1.575c0.01,0.158,0.037,0.315,0.086,0.468   l4.369,15.656L4.21,6.389C4.072,6.183,4,5.943,4,5.696z"/>
	<path style="opacity:0.1;" d="M12,17.349V2c0-0.228,0.046-0.444,0.117-0.648L11.034,1.55C11.012,1.697,11,1.848,11,2v11.765   L12,17.349z"/>
	<g>
		<path style="fill:#F2F2F2;" d="M19,1h-4.956L13.61,1.079C13.252,1.232,13,1.587,13,2v20c0,0.551,0.448,1,1,1h5    c0.552,0,1-0.449,1-1V2C20,1.449,19.552,1,19,1z M16.5,21c-0.827,0-1.5-0.673-1.5-1.5s0.673-1.5,1.5-1.5s1.5,0.673,1.5,1.5    S17.327,21,16.5,21z"/>
	</g>
	<path style="fill:#303C42;" d="M18.5,2h-4C14.224,2,14,2.224,14,2.5v3C14,5.776,14.224,6,14.5,6h4C18.776,6,19,5.776,19,5.5v-3   C19,2.224,18.776,2,18.5,2z"/>
	<rect x="15" y="3" style="fill:#DD2C00;" width="3" height="2"/>
	<path style="fill:#303C42;" d="M18.5,7h-4C14.224,7,14,7.224,14,7.5v3c0,0.276,0.224,0.5,0.5,0.5h4c0.276,0,0.5-0.224,0.5-0.5v-3   C19,7.224,18.776,7,18.5,7z"/>
	<rect x="15" y="8" style="fill:#76FF03;" width="3" height="2"/>
	<path style="fill:#303C42;" d="M18.5,12h-4c-0.276,0-0.5,0.224-0.5,0.5v3c0,0.276,0.224,0.5,0.5,0.5h4c0.276,0,0.5-0.224,0.5-0.5   v-3C19,12.224,18.776,12,18.5,12z"/>
	<rect x="15" y="13" style="fill:#0091EA;" width="3" height="2"/>
	<path style="opacity:0.1;" d="M7.104,3.523c-0.05-0.153-0.076-0.31-0.086-0.468L6.11,3.646c0.011,0.042,0.012,0.086,0.025,0.127   L9.43,15.582l2.043,3.597L7.104,3.523z"/>
	<linearGradient id="SVGID_1_" gradientUnits="userSpaceOnUse" x1="2.8041" y1="5.6128" x2="24.1965" y2="15.5882">
		<stop offset="0" style="stop-color:#FFFFFF;stop-opacity:0.2"/>
		<stop offset="1" style="stop-color:#FFFFFF;stop-opacity:0"/>
	</linearGradient>
	<path style="fill:url(#SVGID_1_);" d="M19,0h-5c-0.031,0-0.059,0.008-0.09,0.009l0-0.001l-0.01,0.002   c-0.173,0.009-0.339,0.041-0.497,0.091L8.86,0.933C8.435,0.966,8.046,1.137,7.73,1.404L7.728,1.401l-3.67,2.386   C3.396,4.201,3,4.915,3,5.696c0,0.446,0.131,0.877,0.359,1.218l8.657,15.247C12.099,23.187,12.952,24,14,24h5c1.103,0,2-0.897,2-2   V2C21,0.897,20.103,0,19,0z M16.5,20c-0.275,0-0.5-0.224-0.5-0.5s0.225-0.5,0.5-0.5s0.5,0.224,0.5,0.5S16.775,20,16.5,20z"/>
</g>
<g>
</g>
<g>
</g>
<g>
</g>
<g>
</g>
<g>
</g>
<g>
</g>
<g>
</g>
<g>
</g>
<g>
</g>
<g>
</g>
<g>
</g>
<g>
</g>
<g>
</g>
<g>
</g>
<g>
</g>

	<metadata>
		<rdf:RDF xmlns:rdf="http://www.w3.org/1999/02/22-rdf-syntax-ns#" xmlns:rdfs="http://www.w3.org/2000/01/rdf-schema#" xmlns:dc="http://purl.org/dc/elements/1.1/">
			<rdf:Description about="https://iconscout.com/legal#licenses" dc:title="color; palette; paint; colors (2)" dc:description="color; palette; paint; colors (2)" dc:publisher="Iconscout" dc:date="2017-03-22" dc:format="image/svg+xml" dc:language="en">
				<dc:creator>
					<rdf:Bag>
						<rdf:li>Alpár - Etele Méder</rdf:li>
					</rdf:Bag>
				</dc:creator>
			</rdf:Description>
		</rdf:RDF>
    </metadata></svg>
