<svg id="SvgjsSvg1001" width="288" height="288" xmlns="http://www.w3.org/2000/svg" version="1.1" xmlns:xlink="http://www.w3.org/1999/xlink" xmlns:svgjs="http://svgjs.com/svgjs"><defs id="SvgjsDefs1002"></defs><g id="SvgjsG1008" transform="matrix(0.9167,0,0,0.9167,11.995200000000011,11.995087364780687)"><svg xmlns="http://www.w3.org/2000/svg" width="288" height="288" viewBox="0 0 26 26"><g fill="#ffffff" transform="translate(5 -1031.362)" class="colorfff svgShape"><circle cx="8" cy="1044.362" r="13" fill="#9d4997" class="color3a6c87 svgShape"></circle><path fill="#852792" fill-rule="evenodd" style="line-height:normal;text-indent:0;text-align:start;text-decoration-line:none;text-decoration-style:solid;text-decoration-color:#000;text-transform:none;block-progression:tb;isolation:auto;mix-blend-mode:normal" d="M 15.787109 25.681641 A 12.999989 12.999989 0 0 0 16.476562 25.525391 A 12.999989 12.999989 0 0 0 17.710938 25.117188 A 12.999989 12.999989 0 0 0 18.896484 24.585938 A 12.999989 12.999989 0 0 0 20.023438 23.939453 A 12.999989 12.999989 0 0 0 21.080078 23.183594 A 12.999989 12.999989 0 0 0 22.056641 22.326172 A 12.999989 12.999989 0 0 0 22.943359 21.375 A 12.999989 12.999989 0 0 0 23.728516 20.339844 A 12.999989 12.999989 0 0 0 24.408203 19.232422 A 12.999989 12.999989 0 0 0 24.974609 18.0625 A 12.999989 12.999989 0 0 0 25.419922 16.841797 A 12.999989 12.999989 0 0 0 25.6875 15.792969 L 17.947266 8.0527344 C 16.679776 6.7852344 14.930023 6 13 6 C 9.139959 6 6.0000428 9.1399 6 13 C 5.9999923 14.4475 6.4417709 15.792773 7.1972656 16.910156 C 7.1972656 16.910156 7.1972656 16.912109 7.1972656 16.912109 C 7.3229289 17.097877 7.457175 17.276696 7.5996094 17.449219 C 7.5996094 17.449219 7.5996094 17.451172 7.5996094 17.451172 C 7.7421045 17.623696 7.8946385 17.789168 8.0527344 17.947266 L 15.787109 25.681641 z " color="#000" font-family="sans-serif" font-weight="400" transform="translate(-5 1031.362)" white-space="normal" class="color2f4b6c svgShape"></path><path fill-rule="evenodd" style="line-height:normal;text-indent:0;text-align:start;text-decoration-line:none;text-decoration-style:solid;text-decoration-color:#000;text-transform:none;block-progression:tb;isolation:auto;mix-blend-mode:normal" d="M 8,1 C 4.139959,1 1.0000428,4.1398846 1,8 c -2.058e-5,3.860115 3.1399146,7 7,7 3.860086,0 7.00002,-3.139885 7,-7 -4.3e-5,-3.8601154 -3.139959,-7 -7,-7 z m 0,1 c 3.319604,0 5.999963,2.6803455 6,6 1.8e-5,3.319654 -2.680356,6 -6,6 C 4.6803565,14 1.9980292,11.319654 1.9980469,8 1.9980837,4.6803455 4.6803952,2 8,2 Z M 7.9863281,4.0039062 A 0.50005001,0.50005001 0 0 0 7.4941406,4.5117188 L 7.5,7.5039062 4.5039062,7.5097656 a 0.50097755,0.50097755 0 0 0 0.00195,1.0019532 L 7.5,8.5058594 7.5058594,11.5 a 0.50005001,0.50005001 0 1 0 1,0 l -0.00391,-2.9960938 2.9921876,-0.00586 a 0.50005001,0.50005001 0 1 0 -0.002,-1 L 8.5,7.5039062 8.4960938,4.5117188 A 0.50005001,0.50005001 0 0 0 7.9863281,4.0058594 l 0,-0.00195 z" color="#000" font-family="sans-serif" font-weight="400" overflow="visible" transform="translate(0 1036.362)" white-space="normal" fill="#ffffff" class="color000 svgShape"></path></g></svg></g></svg>