<svg xmlns="http://www.w3.org/2000/svg" xmlns:xlink="http://www.w3.org/1999/xlink" enable-background="new 0 0 72 72" viewBox="0 0 72 72"><circle cx="36" cy="36" r="35" fill="#9A5D30"/><defs><circle id="a" cx="36" cy="36" r="35"/></defs><defs><circle id="b" cx="36" cy="36" r="35"/></defs><clipPath id="c"><use overflow="visible" xlink:href="#b"/></clipPath><g clip-path="url(#c)"><path fill="#EF4F63" d="M68,71H4c0-9.2213,6.2873-17.215,15.1792-19.4305c0.1696-0.0499,0.3493-0.0898,0.529-0.1297
					c0.4091-0.0898,0.8183-0.1796,1.2375-0.2695c0.5589-0.1098,1.1077-0.2095,1.6666-0.3094
					c0.4191-0.0798,0.8383-0.1497,1.2575-0.2195c0.0399-0.01,0.0898-0.01,0.1297-0.02c3.9819-0.6387,7.9838-0.958,11.9957-0.958
					c4.0218,0,8.0237,0.3193,12.0056,0.958c0.0399,0.01,0.0898,0.01,0.1297,0.02c0.3094,0.0499,0.6087,0.0998,0.9181,0.1596
					c0.6687,0.1198,1.3373,0.2395,2.0059,0.3792c0.4092,0.0799,0.8183,0.1697,1.2275,0.2595h0.01
					c0.1796,0.0399,0.3593,0.0799,0.529,0.1297C61.7128,53.785,68,61.7787,68,71z"/><path fill="#FAB687" d="M48.1304,50.6414c-4.0218-0.6487-8.0736-0.978-12.1353-0.978c-4.0519,0-8.1036,0.3293-12.1254,0.978
					c-0.4192,0.0699-0.8384,0.1397-1.2575,0.2196c1.8862,3.6326,4.3811,6.9658,6.906,10.0895
					c0.2295,0.2846,0.4601,0.5568,0.6899,0.8348c1.2504,0.5222,2.3685,1.3564,3.3871,2.2403
					c0.5396,0.4682,1.0418,0.9772,1.5626,1.4658c0.2551,0.2393,0.521,0.4646,0.7786,0.7007
					c-0.4575-0.4193-0.2563-0.2102,0.0662,0.0095c1.9395-1.4048,3.8112-2.9224,5.6707-4.5224
					c3.5429-3.0538,6.397-6.3272,7.375-10.8779C48.7392,50.7412,48.4398,50.6913,48.1304,50.6414z"/><path fill="#D8EFFC" d="M51.0544,51.1803c-3.7823,7.854-8.6225,13.2032-14.4107,15.9377l-0.6387,0.2994l-0.6387-0.2994
						c-5.7982-2.7344-10.6484-8.0936-14.4207-15.9477c0.5589-0.1098,1.1077-0.2095,1.6666-0.3094
						c0.4191-0.0798,0.8383-0.1497,1.2575-0.2195c0.0399-0.01,0.0898-0.01,0.1297-0.02
						c3.2733,6.5168,7.3052,11.0376,12.0056,13.4726c4.6905-2.4351,8.7223-6.9558,11.9957-13.4726
						c0.0399,0.01,0.0898,0.01,0.1297,0.02c0.3094,0.0499,0.6087,0.0998,0.9181,0.1596
						C49.7172,50.9208,50.3858,51.0405,51.0544,51.1803z"/><path fill="#FAB687" d="M40.8611,37.7799H31.139c-0.6481,0-1.1734,0.5253-1.1734,1.1733V50.493
				c0,3.3328,2.7017,6.0344,6.0344,6.0344H36c3.3327,0,6.0344-2.7017,6.0344-6.0344V38.9532
				C42.0345,38.3052,41.5091,37.7799,40.8611,37.7799z"/><path fill="#F8A771" d="M41.5406,32.1459v11.5398c0,3.3371-2.4788,6.0347-5.5451,6.0347c-3.0572,0-5.5451-2.6976-5.5451-6.0347
				V32.1459c0-0.6493,0.4865-1.1689,1.0833-1.1689h8.9328C41.0633,30.977,41.5406,31.4965,41.5406,32.1459z"/><path fill="#FAB687" d="M31.3547,13.4283c-5.5366,0-10.1607,4.4228-10.1799,9.9595c-0.0001,0.0364-0.0002,0.0728-0.0002,0.1092
				c0,1.3784,0.0854,2.7326,0.2669,4.0378v0.0122c1.3026,9.9056,8.3117,20.3288,14.5632,20.3277
				c6.2499-0.0011,13.2499-10.4221,14.5525-20.3277v-0.0122c0.1816-1.3051,0.2669-2.6594,0.2669-4.0378
				c0-0.0364-0.0001-0.0728-0.0002-0.1092c-0.0192-5.5366-4.6433-9.9595-10.1799-9.9595H31.3547z"/><path fill="#FAB687" d="M27.0617,30.9755l1.2827,9.6863c0.6153,4.6465,3.8555,8.0568,7.6549,8.0568h0.0001
				c3.7994,0,7.0396-3.4103,7.6549-8.0568l1.2827-9.6863H27.0617z"/><circle cx="30.459" cy="32.309" r="1.728" fill="#3D2F46"/><circle cx="41.541" cy="32.309" r="1.728" fill="#3D2F46"/><path fill="#3D2F46" d="M31.9016 28.171l-.0549-.2804c-.0764-.3898-.4543-.6439-.8441-.5675l-3.7921.7429c-.3898.0763-.6439.4542-.5676.844l.0549.2804c.0764.3898.4543.6439.8441.5675l3.7922-.7429C31.7239 28.9387 31.9779 28.5608 31.9016 28.171zM44.7896 28.066l-3.7922-.7429c-.3898-.0764-.7678.1777-.8441.5675l-.0549.2804c-.0764.3898.1777.7677.5676.844l3.7921.7429c.3898.0764.7678-.1777.8441-.5675l.0549-.2804C45.4335 28.5203 45.1794 28.1423 44.7896 28.066z"/><line x1="20.859" x2="20.839" y1="27.822" y2="27.932" fill="#5C2F2A"/><g><path fill="#FAB687" d="M50.3987 26.3905c-1.5844 0-3.0401 2.0199-3.2442 4.4275-.1966 2.3196.8499 4.1387 2.3309 4.1387s2.9155-1.8191 3.2134-4.1387C53.0082 28.4104 51.9832 26.3905 50.3987 26.3905zM21.6012 26.3905c-1.5844 0-2.6094 2.0199-2.3001 4.4275.298 2.3196 1.7323 4.1387 3.2134 4.1387 1.4811 0 2.5276-1.8191 2.3309-4.1387C24.6414 28.4104 23.1857 26.3905 21.6012 26.3905z"/></g><path fill="#5C2F2A" d="M53.2805,24.7779c-0.6477,2.3551-1.8154,4.3571-3.2482,5.7898l-0.1184-4.7705
				c-0.0532-2.1449-1.2602-4.0314-3.0644-5.1925c-0.0088-0.0056-0.0175-0.0113-0.0262-0.017
				c-0.8636-0.5692-1.5799-1.3836-2.0215-2.3747c-0.2552,0.9617-0.8047,1.7664-1.5505,2.3453
				c-0.7458,0.5791-1.6683,0.9126-2.6594,0.9126h-7.409c-5.417,0-10.0979,3.788-11.2068,9.097
				c-0.3336-0.8733-0.5888-3.1285-0.7654-4.4041c-0.1766-1.2856-0.265-2.5908-0.265-3.5918c0-8.5768,6.7712-15.5149,15.1125-15.5149
				c4.3375,0,8.253,2.8736,11.0007,5.8861c0.6967-0.0882,1.3935-0.0489,2.0608,0.1375
				C52.9076,14.1304,54.7721,19.361,53.2805,24.7779z"/><g><path fill="#663430" d="M39.9737,41.9068c-0.17,0.6101-0.49,1.16-0.92,1.5901c-0.01,0.01-0.02,0.02-0.04,0.03
							c-0.08,0.08-0.15,0.1599-0.25,0.23c-0.22,0.1899-0.45,0.3699-0.71,0.5c-0.03,0-0.06,0.01-0.07,0.02
							c-0.26,0.1299-0.53,0.25-0.81,0.33c-0.24,0.0699-0.49,0.13-0.76,0.15c-0.13,0.01-0.27,0.02-0.4,0.02
							c-0.21,0-0.39-0.02-0.59-0.04c-0.18-0.03-0.34-0.0701-0.52-0.12h-0.03c-0.04-0.01-0.06-0.02-0.1-0.03
							c-0.08-0.02-0.16-0.0499-0.2401-0.09c-0.17-0.0601-0.34-0.14-0.5-0.22c-0.02-0.01-0.04-0.02-0.07-0.02
							c-0.24-0.1301-0.48-0.29-0.6899-0.47c-0.58-0.49-1.03-1.1301-1.25-1.8701c-0.13-0.4299,0.17-0.8799,0.6299-0.8799h6.7
							C39.8037,41.0369,40.1137,41.4869,39.9737,41.9068z"/><path fill="#EF4F63" d="M39.0137,43.5269c-0.08,0.08-0.15,0.1599-0.25,0.23c-0.22,0.1899-0.45,0.3699-0.71,0.5
					c-0.03,0-0.06,0.01-0.07,0.02c-0.26,0.1299-0.53,0.25-0.81,0.33c-0.24,0.0699-0.49,0.13-0.76,0.15
					c-0.13,0.01-0.27,0.02-0.4,0.02c-0.21,0-0.39-0.02-0.59-0.04c-0.18-0.03-0.34-0.0701-0.52-0.12h-0.03
					c-0.04-0.01-0.06-0.02-0.1-0.03c-0.08-0.02-0.16-0.0499-0.2401-0.09c0.22-0.77,1.35-1.3501,2.72-1.3501
					C37.9237,43.1468,38.5337,43.2869,39.0137,43.5269z"/></g></g><g><defs><circle id="d" cx="36" cy="36" r="35"/></defs></g></svg>